<svg width="70" height="70" viewBox="0 0 70 70" fill="none" xmlns="http://www.w3.org/2000/svg">
<rect width="70" height="70" rx="35" fill="black"/>
<path d="M44.0852 26.1278C44.9337 25.2831 44.9337 23.9066 44.0852 23.0619L40.9637 19.938L40.9682 19.9424C40.142 19.1156 38.7219 17.6944 36.7123 15.6877C35.7656 14.7626 34.2339 14.7716 33.296 15.7101L15.71 33.2964C15.485 33.5201 15.3064 33.7861 15.1846 34.0791C15.0627 34.3721 15 34.6863 15 35.0037C15 35.321 15.0627 35.6353 15.1846 35.9283C15.3064 36.2213 15.485 36.4873 15.71 36.7109L33.2916 54.2928C33.7449 54.7456 34.3592 55 34.9997 55C35.6402 55 36.2546 54.7456 36.7079 54.2928L44.0808 46.9186C44.9293 46.0739 44.9293 44.6974 44.0808 43.8527C43.6732 43.4469 43.1217 43.2191 42.5468 43.2191C41.9719 43.2191 41.4204 43.4469 41.0128 43.8527L35.4307 49.4481C35.1984 49.6805 34.8367 49.6805 34.6045 49.4481L20.5598 35.4059C20.3276 35.1735 20.3276 34.8115 20.5598 34.5791L34.6 20.5368C34.6179 20.519 34.6402 20.5056 34.6581 20.4877C34.8903 20.3044 35.2118 20.3223 35.4262 20.5368L41.0173 26.1278C41.8658 26.977 43.2412 26.977 44.0852 26.1278ZM30.3442 35.0931C30.3442 36.3518 30.8443 37.5591 31.7346 38.4492C32.6248 39.3393 33.8323 39.8393 35.0913 39.8393C36.3503 39.8393 37.5577 39.3393 38.448 38.4492C39.3382 37.5591 39.8383 36.3518 39.8383 35.0931C39.8383 33.8343 39.3382 32.627 38.448 31.7369C37.5577 30.8468 36.3503 30.3468 35.0913 30.3468C33.8323 30.3468 32.6248 30.8468 31.7346 31.7369C30.8443 32.627 30.3442 33.8343 30.3442 35.0931ZM54.2894 33.3679L48.8011 27.9021C47.9526 27.0574 46.5771 27.0574 45.7331 27.9066C45.5314 28.1075 45.3713 28.3464 45.2621 28.6095C45.1529 28.8726 45.0966 29.1546 45.0966 29.4395C45.0966 29.7244 45.1529 30.0064 45.2621 30.2695C45.3713 30.5326 45.5314 30.7715 45.7331 30.9724L49.4397 34.6774C49.6719 34.9098 49.6719 35.2718 49.4397 35.5042L45.7867 39.1556C45.585 39.3565 45.4249 39.5954 45.3157 39.8585C45.2064 40.1216 45.1502 40.4036 45.1502 40.6885C45.1502 40.9734 45.2064 41.2554 45.3157 41.5185C45.4249 41.7816 45.585 42.0205 45.7867 42.2214C46.1942 42.6273 46.7458 42.8551 47.3207 42.8551C47.8956 42.8551 48.4471 42.6273 48.8546 42.2214L54.2939 36.7824C54.5181 36.5582 54.6959 36.2919 54.8171 35.9988C54.9383 35.7056 55.0004 35.3915 55 35.0742C54.9996 34.757 54.9366 34.443 54.8147 34.1502C54.6927 33.8574 54.5142 33.5916 54.2894 33.3679Z" fill="#FFD700"/>
</svg>
