<svg width="70" height="70" viewBox="0 0 70 70" fill="none" xmlns="http://www.w3.org/2000/svg">
<rect width="70" height="70" rx="35" fill="black"/>
<path d="M49.4 15H55V21H49.4V15ZM49.4 24H55V30H49.4V24ZM41 15H46.6V21H41V15ZM41 24H46.6V30H41V24Z" fill="#FFD700"/>
<path d="M52.1429 35.0769V43.6154H17.8571V20.8462H35V18H17.8571C17.0994 18 16.3727 18.2999 15.8368 18.8336C15.301 19.3674 15 20.0913 15 20.8462V43.6154C15 44.3702 15.301 45.0942 15.8368 45.6279C16.3727 46.1617 17.0994 46.4615 17.8571 46.4615H29.2857V52.1538H23.5714V55H46.4286V52.1538H40.7143V46.4615H52.1429C52.9006 46.4615 53.6273 46.1617 54.1632 45.6279C54.699 45.0942 55 44.3702 55 43.6154V35.0769H52.1429ZM37.8571 52.1538H32.1429V46.4615H37.8571V52.1538Z" fill="#FFD700"/>
</svg>
