<svg width="70" height="70" viewBox="0 0 70 70" fill="none" xmlns="http://www.w3.org/2000/svg">
<rect width="70" height="70" rx="35" fill="black"/>
<path d="M14 18.7143V22.4286H55V18.7143C54.9995 17.7293 54.6067 16.7849 53.9078 16.0884C53.2089 15.392 52.2611 15.0005 51.2727 15H17.7273C16.7389 15.0005 15.7911 15.392 15.0922 16.0884C14.3933 16.7849 14.0005 17.7293 14 18.7143ZM19.604 20.5863C19.2353 20.5867 18.8748 20.478 18.5681 20.2742C18.2613 20.0704 18.0222 19.7804 17.8809 19.4411C17.7395 19.1018 17.7023 18.7283 17.774 18.368C17.8457 18.0076 18.0231 17.6765 18.2836 17.4166C18.5442 17.1567 18.8763 16.9796 19.2378 16.9078C19.5994 16.836 19.9742 16.8727 20.3148 17.0132C20.6555 17.1537 20.9467 17.3917 21.1515 17.6972C21.3564 18.0026 21.4657 18.3618 21.4657 18.7291C21.4657 19.2217 21.2694 19.6941 20.9199 20.0423C20.5704 20.3906 20.0982 20.5863 19.604 20.5863ZM25.1893 20.5844C24.8207 20.5844 24.4604 20.4755 24.1539 20.2714C23.8474 20.0674 23.6086 19.7773 23.4675 19.438C23.3264 19.0986 23.2895 18.7252 23.3614 18.365C23.4334 18.0047 23.6108 17.6738 23.8715 17.4141C24.1321 17.1544 24.4642 16.9775 24.8257 16.9058C25.1872 16.8342 25.5619 16.8709 25.9025 17.0115C26.243 17.1521 26.5341 17.3901 26.7388 17.6955C26.9436 18.0009 27.0529 18.36 27.0529 18.7273C27.0519 19.2195 26.8553 19.6913 26.506 20.0394C26.1567 20.3875 25.6832 20.5834 25.1893 20.5844ZM14 24.2857V50.2857C14 51.2708 14.3927 52.2155 15.0917 52.9121C15.7907 53.6087 16.7387 54 17.7273 54H51.2727C52.2613 54 53.2093 53.6087 53.9083 52.9121C54.6073 52.2155 55 51.2708 55 50.2857V24.2857H14ZM51.2727 50.2857H17.7273V28H51.2727V50.2857Z" fill="#FFD700"/>
<path d="M28.7143 47L30.0643 45.6875L31.4143 44.375L28.9071 41.9375L26.4 39.5L28.9071 37.0625L31.4143 34.625L30.0643 33.3125L28.7143 32L24.8571 35.75L21 39.5L24.8571 43.25L28.7143 47ZM37.5857 44.375L38.9357 45.6875L40.2857 47L44.1429 43.25L48 39.5L44.1429 35.75L40.2857 32L38.9357 33.3125L37.5857 34.625L40.0929 37.0625L42.6 39.5L40.0929 41.9375L37.5857 44.375Z" fill="#FFD700"/>
</svg>
