<svg width="170" height="52" viewBox="0 0 170 52" fill="none" xmlns="http://www.w3.org/2000/svg">
<rect width="170" height="52" rx="20" fill="#FFD700" fill-opacity="0.5"/>
<path d="M54.9 35.3C52.6333 35.3 50.88 34.6867 49.64 33.46C48.4 32.2333 47.78 30.48 47.78 28.2C47.78 25.9333 48.4 24.1867 49.64 22.96C50.8933 21.72 52.6467 21.1 54.9 21.1C55.8067 21.1 56.6533 21.1933 57.44 21.38C58.2267 21.5667 58.88 21.8333 59.4 22.18C59.52 22.26 59.58 22.3467 59.58 22.44C59.58 22.5067 59.5533 22.5867 59.5 22.68L58.92 23.68C58.84 23.8 58.76 23.86 58.68 23.86C58.64 23.86 58.5533 23.8267 58.42 23.76C57.5133 23.2533 56.4333 23 55.18 23C53.66 23 52.4667 23.4333 51.6 24.3C50.7333 25.1533 50.3 26.4533 50.3 28.2C50.3 29.96 50.72 31.2667 51.56 32.12C52.4 32.9733 53.5533 33.4 55.02 33.4C55.5533 33.4 56.0733 33.36 56.58 33.28C57.0867 33.1867 57.5 33.06 57.82 32.9V29.2H55.18C54.9133 29.2 54.7267 29.1467 54.62 29.04C54.5133 28.92 54.46 28.7333 54.46 28.48V27.96C54.46 27.7067 54.5133 27.5333 54.62 27.44C54.7267 27.3333 54.9133 27.28 55.18 27.28H59.4C59.6933 27.28 59.9 27.3533 60.02 27.5C60.1533 27.6333 60.22 27.8467 60.22 28.14V33.42C60.22 33.62 60.2 33.7733 60.16 33.88C60.12 33.9733 60.0333 34.06 59.9 34.14C58.6733 34.9133 57.0067 35.3 54.9 35.3ZM62.9439 35C62.6772 35 62.4839 34.94 62.3639 34.82C62.2439 34.7 62.1839 34.52 62.1839 34.28V25.94C62.1839 25.74 62.2172 25.6 62.2839 25.52C62.3506 25.44 62.4906 25.4 62.7039 25.4H63.8439C63.9906 25.4 64.0972 25.4333 64.1639 25.5C64.2306 25.5533 64.2706 25.6533 64.2839 25.8L64.3439 26.52C65.1306 25.5733 66.1639 25.1 67.4439 25.1C68.0306 25.1 68.4772 25.2 68.7839 25.4C68.8639 25.4533 68.9106 25.5133 68.9239 25.58C68.9506 25.6333 68.9506 25.7 68.9239 25.78L68.5639 26.98C68.5239 27.1133 68.4506 27.18 68.3439 27.18L68.1839 27.14C67.8639 26.9933 67.4972 26.92 67.0839 26.92C66.4039 26.92 65.8439 27.1133 65.4039 27.5C64.9639 27.8733 64.7439 28.3867 64.7439 29.04V34.28C64.7439 34.52 64.6839 34.7 64.5639 34.82C64.4572 34.94 64.2639 35 63.9839 35H62.9439ZM75.6842 35.3C74.6442 35.3 73.7042 35.1267 72.8642 34.78C72.0242 34.42 71.3509 33.8733 70.8442 33.14C70.3509 32.3933 70.1042 31.4667 70.1042 30.36C70.1042 28.64 70.5642 27.3333 71.4842 26.44C72.4042 25.5467 73.7109 25.1 75.4042 25.1C77.0842 25.1 78.3509 25.5333 79.2042 26.4C80.0709 27.2667 80.5042 28.52 80.5042 30.16C80.5042 30.6267 80.2909 30.86 79.8642 30.86H72.5242C72.5242 31.74 72.8309 32.42 73.4442 32.9C74.0576 33.3667 74.9109 33.6 76.0042 33.6C77.0576 33.6 78.0042 33.36 78.8442 32.88C78.9376 32.8267 79.0109 32.8 79.0642 32.8C79.1576 32.8 79.2309 32.86 79.2842 32.98L79.7642 33.84C79.8042 33.92 79.8242 33.9933 79.8242 34.06C79.8242 34.1533 79.7642 34.24 79.6442 34.32C79.0976 34.6533 78.5042 34.9 77.8642 35.06C77.2376 35.22 76.5109 35.3 75.6842 35.3ZM78.1842 29.38C78.1842 28.5533 77.9509 27.9067 77.4842 27.44C77.0309 26.9733 76.3442 26.74 75.4242 26.74C74.4909 26.74 73.7709 26.98 73.2642 27.46C72.7709 27.94 72.5242 28.58 72.5242 29.38H78.1842ZM87.6373 35.3C86.5973 35.3 85.6573 35.1267 84.8173 34.78C83.9773 34.42 83.304 33.8733 82.7973 33.14C82.304 32.3933 82.0573 31.4667 82.0573 30.36C82.0573 28.64 82.5173 27.3333 83.4373 26.44C84.3573 25.5467 85.664 25.1 87.3573 25.1C89.0373 25.1 90.304 25.5333 91.1573 26.4C92.024 27.2667 92.4573 28.52 92.4573 30.16C92.4573 30.6267 92.244 30.86 91.8173 30.86H84.4773C84.4773 31.74 84.784 32.42 85.3973 32.9C86.0107 33.3667 86.864 33.6 87.9573 33.6C89.0107 33.6 89.9573 33.36 90.7973 32.88C90.8907 32.8267 90.964 32.8 91.0173 32.8C91.1107 32.8 91.184 32.86 91.2373 32.98L91.7173 33.84C91.7573 33.92 91.7773 33.9933 91.7773 34.06C91.7773 34.1533 91.7173 34.24 91.5973 34.32C91.0507 34.6533 90.4573 34.9 89.8173 35.06C89.1907 35.22 88.464 35.3 87.6373 35.3ZM90.1373 29.38C90.1373 28.5533 89.904 27.9067 89.4373 27.44C88.984 26.9733 88.2973 26.74 87.3773 26.74C86.444 26.74 85.724 26.98 85.2173 27.46C84.724 27.94 84.4773 28.58 84.4773 29.38H90.1373ZM98.8305 35.3C97.6971 35.3 96.8438 34.9867 96.2705 34.36C95.6971 33.7333 95.4105 32.8667 95.4105 31.76V27.28H94.2705C94.0038 27.28 93.8238 27.2333 93.7305 27.14C93.6505 27.0467 93.6105 26.8733 93.6105 26.62V26.08C93.6105 25.8267 93.6505 25.6533 93.7305 25.56C93.8238 25.4533 94.0038 25.4 94.2705 25.4H95.4105V24.3C95.4105 24.02 95.4571 23.76 95.5505 23.52C95.6571 23.2667 95.8171 22.9533 96.0305 22.58C96.1105 22.42 96.1838 22.32 96.2505 22.28C96.3305 22.2267 96.4638 22.2 96.6505 22.2H97.3105C97.5505 22.2 97.7171 22.26 97.8105 22.38C97.9171 22.4867 97.9705 22.6533 97.9705 22.88V25.4H100.33C100.597 25.4 100.77 25.4533 100.85 25.56C100.944 25.6533 100.99 25.8267 100.99 26.08V26.62C100.99 26.8733 100.944 27.0467 100.85 27.14C100.77 27.2333 100.597 27.28 100.33 27.28H97.9705V31.68C97.9705 32.2933 98.0771 32.74 98.2905 33.02C98.5038 33.2867 98.8705 33.42 99.3905 33.42C99.6971 33.42 99.9571 33.3867 100.17 33.32C100.384 33.24 100.617 33.1133 100.87 32.94C100.937 32.8867 101.01 32.86 101.09 32.86C101.17 32.86 101.25 32.92 101.33 33.04L101.91 34C101.964 34.0667 101.99 34.14 101.99 34.22C101.99 34.3133 101.924 34.4067 101.79 34.5C100.964 35.0333 99.9771 35.3 98.8305 35.3ZM104.551 23.74C104.231 23.74 103.984 23.6467 103.811 23.46C103.638 23.2733 103.551 23.0467 103.551 22.78V22.36C103.551 22.0933 103.638 21.8667 103.811 21.68C103.984 21.4933 104.231 21.4 104.551 21.4H105.411C105.731 21.4 105.978 21.4933 106.151 21.68C106.338 21.8667 106.431 22.0933 106.431 22.36V22.78C106.431 23.0467 106.338 23.2733 106.151 23.46C105.978 23.6467 105.731 23.74 105.411 23.74H104.551ZM104.471 35C104.204 35 104.011 34.94 103.891 34.82C103.771 34.7 103.711 34.52 103.711 34.28V26.14C103.711 25.8867 103.771 25.7 103.891 25.58C104.011 25.46 104.204 25.4 104.471 25.4H105.511C105.778 25.4 105.971 25.46 106.091 25.58C106.211 25.7 106.271 25.8867 106.271 26.14V34.28C106.271 34.52 106.211 34.7 106.091 34.82C105.984 34.94 105.791 35 105.511 35H104.471ZM109.545 35C109.279 35 109.085 34.94 108.965 34.82C108.845 34.7 108.785 34.52 108.785 34.28V25.94C108.785 25.74 108.819 25.6 108.885 25.52C108.952 25.44 109.092 25.4 109.305 25.4H110.445C110.739 25.4 110.892 25.5333 110.905 25.8L110.945 26.6C111.852 25.6 113.152 25.1 114.845 25.1C115.925 25.1 116.792 25.3933 117.445 25.98C118.112 26.5533 118.445 27.42 118.445 28.58V34.28C118.445 34.52 118.385 34.7 118.265 34.82C118.159 34.94 117.972 35 117.705 35H116.645C116.379 35 116.185 34.94 116.065 34.82C115.945 34.7 115.885 34.52 115.885 34.28V28.74C115.885 28.0867 115.732 27.6267 115.425 27.36C115.132 27.08 114.652 26.94 113.985 26.94C113.279 26.94 112.659 27.1333 112.125 27.52C111.605 27.8933 111.345 28.38 111.345 28.98V34.28C111.345 34.52 111.285 34.7 111.165 34.82C111.059 34.94 110.865 35 110.585 35H109.545ZM125.8 38.4C125.026 38.4 124.273 38.3267 123.54 38.18C122.806 38.0333 122.246 37.84 121.86 37.6C121.646 37.48 121.593 37.3333 121.7 37.16L122.28 36.18C122.36 36.0467 122.44 35.98 122.52 35.98C122.573 35.98 122.64 36 122.72 36.04C123.453 36.4133 124.406 36.6 125.58 36.6C126.473 36.6 127.126 36.3867 127.54 35.96C127.953 35.5333 128.16 34.8133 128.16 33.8C127.786 34.2 127.346 34.5 126.84 34.7C126.346 34.8867 125.746 34.98 125.04 34.98C123.546 34.98 122.38 34.5733 121.54 33.76C120.713 32.9467 120.3 31.8 120.3 30.32C120.3 28.64 120.793 27.3533 121.78 26.46C122.78 25.5533 124.22 25.1 126.1 25.1C126.966 25.1 127.813 25.22 128.64 25.46C129.48 25.7 130.16 26 130.68 26.36V33.22C130.68 34.8333 130.286 36.1 129.5 37.02C128.713 37.94 127.48 38.4 125.8 38.4ZM125.64 33.1C126.386 33.1 126.993 32.9067 127.46 32.52C127.926 32.12 128.16 31.5733 128.16 30.88V27.32C127.906 27.2 127.586 27.1067 127.2 27.04C126.813 26.9733 126.406 26.94 125.98 26.94C123.873 26.94 122.82 28.0133 122.82 30.16C122.82 31.1467 123.053 31.8867 123.52 32.38C123.986 32.86 124.693 33.1 125.64 33.1ZM137.203 35.3C136.403 35.3 135.623 35.2133 134.863 35.04C134.103 34.88 133.45 34.6333 132.903 34.3C132.73 34.2067 132.643 34.1067 132.643 34C132.643 33.92 132.67 33.8467 132.723 33.78L133.283 32.8C133.35 32.68 133.417 32.62 133.483 32.62C133.55 32.62 133.637 32.6533 133.743 32.72C134.143 32.96 134.637 33.16 135.223 33.32C135.81 33.48 136.35 33.56 136.843 33.56C137.603 33.56 138.143 33.4867 138.463 33.34C138.797 33.18 138.963 32.9 138.963 32.5C138.963 32.2733 138.897 32.0933 138.763 31.96C138.643 31.8133 138.457 31.6867 138.203 31.58C137.95 31.4733 137.53 31.3267 136.943 31.14C136.943 31.14 136.723 31.0667 136.283 30.92C135.523 30.6667 134.917 30.42 134.463 30.18C134.01 29.94 133.657 29.64 133.403 29.28C133.163 28.9067 133.043 28.44 133.043 27.88C133.043 26.9733 133.423 26.2867 134.183 25.82C134.957 25.34 135.957 25.1 137.183 25.1C138.677 25.1 139.963 25.42 141.043 26.06C141.217 26.1533 141.303 26.2533 141.303 26.36C141.303 26.4267 141.27 26.5133 141.203 26.62L140.663 27.48C140.583 27.6 140.517 27.66 140.463 27.66C140.41 27.66 140.33 27.6267 140.223 27.56C139.877 27.3467 139.457 27.18 138.963 27.06C138.483 26.9267 137.997 26.86 137.503 26.86C136.837 26.86 136.343 26.9333 136.023 27.08C135.717 27.2133 135.563 27.48 135.563 27.88C135.563 28.2267 135.743 28.5 136.103 28.7C136.477 28.9 137.117 29.14 138.023 29.42L138.683 29.62C139.723 29.9533 140.45 30.3467 140.863 30.8C141.29 31.2533 141.503 31.82 141.503 32.5C141.503 33.3267 141.137 34 140.403 34.52C139.683 35.04 138.617 35.3 137.203 35.3ZM143.993 31.22C143.766 31.22 143.6 31.1667 143.493 31.06C143.4 30.94 143.353 30.7533 143.353 30.5L143.233 22.14C143.233 21.8867 143.286 21.7 143.393 21.58C143.513 21.46 143.706 21.4 143.973 21.4H145.073C145.34 21.4 145.526 21.46 145.633 21.58C145.753 21.7 145.813 21.8867 145.813 22.14L145.673 30.5C145.673 30.7533 145.62 30.94 145.513 31.06C145.42 31.1667 145.24 31.22 144.973 31.22H143.993ZM144.253 35C143.466 35 143.073 34.7267 143.073 34.18V33.76C143.073 33.2 143.466 32.92 144.253 32.92H144.773C145.56 32.92 145.953 33.2 145.953 33.76V34.18C145.953 34.7267 145.56 35 144.773 35H144.253Z" fill="#FFD702"/>
<path d="M20.6205 32.913C20.4567 32.8802 20.3256 32.8474 20.1617 32.7819C19.9979 32.7163 19.8668 32.6836 19.7357 32.618C19.4408 32.487 19.1787 32.3231 18.9165 32.1265C18.3922 31.766 17.9662 31.2745 17.6385 30.6846C17.3108 30.1276 17.1142 29.4722 17.0814 28.8495C17.0486 28.5218 17.0814 28.2269 17.1142 27.8992C17.1469 27.7354 17.1797 27.6043 17.2125 27.4404C17.2452 27.2766 17.3108 27.1455 17.3436 26.9817L17.3763 27.4404C17.3763 27.6043 17.4091 27.7354 17.4419 27.8992C17.4746 28.1941 17.5402 28.4891 17.6057 28.7512C17.7368 29.3083 17.9334 29.8326 18.2283 30.3242C18.5233 30.8157 18.851 31.2745 19.277 31.7005C19.4736 31.8971 19.703 32.0937 19.9324 32.2903C20.0307 32.3887 20.1617 32.487 20.2928 32.5853L20.6205 32.913ZM20.5222 34.0927C20.4239 34.1582 20.2928 34.191 20.1617 34.2237C20.0307 34.2565 19.9324 34.2893 19.8013 34.2893C19.5719 34.3221 19.3097 34.3548 19.0476 34.3221C18.556 34.2893 18.0317 34.1582 17.6057 33.9288C17.1469 33.6994 16.7537 33.339 16.4915 32.913C16.3605 32.7163 16.2294 32.487 16.1311 32.2576C16.0983 32.1593 16.0655 32.0282 16.0328 31.8971C16.0328 31.7988 16 31.7005 16 31.5694C16.0983 31.6677 16.1638 31.766 16.2294 31.8316C16.3277 31.9299 16.3932 32.0282 16.4588 32.0937C16.6226 32.2576 16.7537 32.4214 16.9175 32.5525C17.2452 32.8474 17.5729 33.1096 17.9662 33.3062C18.3266 33.5028 18.7526 33.6667 19.1459 33.7977C19.3425 33.8633 19.5719 33.8961 19.8013 33.9616C19.8996 33.9944 20.0307 33.9944 20.129 34.0271C20.2928 34.0599 20.3911 34.0599 20.5222 34.0927ZM27.9281 18.1666C28.092 18.1994 28.2231 18.265 28.3869 18.3305C28.5508 18.396 28.6818 18.4616 28.8129 18.5271C29.1078 18.691 29.37 18.8548 29.6322 19.0514C30.1565 19.4447 30.5825 19.969 30.8774 20.5588C31.1723 21.1487 31.3362 21.8041 31.3362 22.4267C31.3362 22.7544 31.3034 23.0493 31.2379 23.377C31.2051 23.5409 31.1723 23.6719 31.1068 23.8358C31.0412 23.9996 31.0085 24.1307 30.9429 24.2618L30.9102 23.803C30.9102 23.6392 30.9102 23.5081 30.8774 23.3442L30.7791 22.4595C30.6808 21.9024 30.4842 21.3453 30.222 20.821C29.9598 20.2967 29.6322 19.8379 29.2389 19.4119C29.0423 19.1825 28.8129 18.9859 28.6163 18.7565C28.518 18.6582 28.3869 18.5599 28.2558 18.4616L27.9281 18.1666ZM30.7791 18.0356C30.9102 18.0683 31.0085 18.1011 31.1068 18.1666C31.2051 18.1994 31.3362 18.265 31.4345 18.3305C31.6311 18.4616 31.8277 18.5927 32.0243 18.7565C32.3848 19.0842 32.6797 19.4774 32.8436 19.9362C33.0402 20.395 33.1057 20.8865 33.0402 21.3781C33.0074 21.6075 32.9419 21.8368 32.8763 22.0662C32.8436 22.1645 32.778 22.2956 32.7453 22.3939C32.6797 22.4922 32.647 22.5905 32.5486 22.6889V22.3612V22.0335C32.5486 21.8041 32.5159 21.6075 32.5159 21.4108C32.4503 20.9848 32.3848 20.5916 32.2209 20.2311C32.0571 19.8379 31.8605 19.5102 31.6311 19.1497C31.5 18.9859 31.3689 18.7893 31.2379 18.6254C31.1723 18.5271 31.1068 18.4616 31.0085 18.3633C30.9429 18.1994 30.8446 18.1011 30.7791 18.0356Z" fill="#42ADE2"/>
<path d="M18.6216 22.9182C17.9662 23.2132 17.7368 23.9996 18.0317 24.655L22.1607 33.2734L24.4546 32.192L20.3256 23.5409C20.0307 22.8855 19.277 22.5905 18.6216 22.9182ZM29.4683 29.7671L31.8933 28.6201L27.1744 18.7893C26.8467 18.1339 26.0603 17.8389 25.3721 18.1666C24.7167 18.4943 24.4218 19.2808 24.7495 19.969L29.4683 29.7671Z" fill="#FFDD67"/>
<path d="M25.4049 18.1339C25.3393 18.1666 25.2738 18.1994 25.2083 18.2649C25.8309 18.1011 26.4863 18.396 26.7812 18.9859L31.5 28.8168L31.926 28.6201L27.2072 18.7893C26.8795 18.1011 26.093 17.8062 25.4049 18.1339Z" fill="#EBA352"/>
<path d="M24.4546 32.1593L26.9778 30.9468L22.1607 20.9193C21.833 20.2311 20.981 19.9034 20.2928 20.2311C19.6047 20.5588 19.3097 21.4108 19.6374 22.099L24.4546 32.1593Z" fill="#FFDD67"/>
<path d="M20.2928 20.2639C20.2273 20.2967 20.1617 20.3294 20.0962 20.395C20.7188 20.2311 21.4397 20.5261 21.7347 21.1487L24.7167 27.4077L25.4376 27.8337L22.1607 20.9521C21.833 20.2311 21.0137 19.9362 20.2928 20.2639Z" fill="#EBA352"/>
<path d="M26.5846 30.1603L29.1078 28.9478L24.2907 18.9203C23.963 18.2322 23.111 17.9045 22.4228 18.265C21.7347 18.5926 21.4398 19.4447 21.7674 20.1328L26.5846 30.1603Z" fill="#FFDD67"/>
<path d="M22.4228 18.2322C22.3573 18.2649 22.2918 18.3305 22.2262 18.3633C22.8488 18.1994 23.5698 18.4943 23.8647 19.117L27.24 26.1952L27.9609 26.6212L24.2907 18.9203C23.963 18.1994 23.111 17.9045 22.4228 18.2322ZM18.6216 22.9182C18.556 22.951 18.4905 22.9838 18.425 23.0493C19.0148 22.8855 19.6374 23.1804 19.8996 23.7702L22.3573 28.9151L23.0782 29.3411L20.3256 23.5736C20.0307 22.8855 19.277 22.5905 18.6216 22.9182Z" fill="#EBA352"/>
<path d="M35.2685 21.9351C34.3837 21.247 32.9419 22.0007 32.2209 24.3601C31.7294 25.9986 31.6639 26.4901 30.6152 26.9817L30.0254 25.7692C30.0254 25.7692 20.7188 30.2586 21.0793 30.9795C21.0793 30.9795 22.1935 34.4531 24.0941 36.0588C26.9123 38.4838 33.499 35.895 33.7939 29.636C33.9577 25.9986 36.2188 22.6888 35.2685 21.9351Z" fill="#FFDD67"/>
<path d="M35.2685 21.9352C35.1047 21.8041 34.9081 21.7385 34.7114 21.7058C34.7442 21.7385 34.8097 21.7385 34.8425 21.7713C35.8256 22.525 34.8097 24.2618 34.2527 25.8347C33.7939 27.08 33.4007 28.358 33.4662 29.6032C33.7283 35.043 28.2558 37.6318 24.9789 36.6487C28.1903 37.9923 34.1544 35.4362 33.8922 29.7671C33.8267 28.5218 34.1871 27.3094 34.6787 25.9986C35.203 24.4256 36.2188 22.6889 35.2685 21.9352Z" fill="#EBA352"/>
<path d="M30.9102 26.8506C28.8784 27.08 25.8964 29.9965 27.9937 33.1751C26.4535 29.9637 28.9768 27.8009 30.5825 27.0472C30.7463 26.9161 30.9102 26.8506 30.9102 26.8506Z" fill="#EBA352"/>
</svg>
