<svg width="215" height="69" viewBox="0 0 215 69" fill="none" xmlns="http://www.w3.org/2000/svg">
<rect x="0.5" y="0.5" width="214" height="68" stroke="#FFD702"/>
<path d="M82.92 42C82.6 42 82.3667 41.9333 82.22 41.8C82.0867 41.6533 82.02 41.4333 82.02 41.14V29.28C82.02 28.9867 82.0867 28.7667 82.22 28.62C82.3667 28.4733 82.6 28.4 82.92 28.4H84.42C84.7533 28.4 84.9867 28.4733 85.12 28.62C85.2533 28.7533 85.32 28.9733 85.32 29.28V39.58H90.96C91.28 39.58 91.5 39.6467 91.62 39.78C91.74 39.9133 91.8 40.1333 91.8 40.44V41.16C91.8 41.4667 91.74 41.6867 91.62 41.82C91.5 41.94 91.28 42 90.96 42H82.92ZM98.3356 42.3C97.2556 42.3 96.2823 42.12 95.4156 41.76C94.5623 41.3867 93.8823 40.8333 93.3756 40.1C92.8823 39.3533 92.6356 38.4333 92.6356 37.34C92.6356 35.6333 93.1023 34.3333 94.0356 33.44C94.9823 32.5467 96.329 32.1 98.0756 32.1C99.7956 32.1 101.096 32.5333 101.976 33.4C102.869 34.2667 103.316 35.5 103.316 37.1C103.316 37.66 103.062 37.94 102.556 37.94H95.7556C95.7556 38.66 96.0223 39.22 96.5556 39.62C97.1023 40.0067 97.849 40.2 98.7956 40.2C99.3556 40.2 99.8423 40.1467 100.256 40.04C100.669 39.92 101.069 39.7533 101.456 39.54C101.589 39.4733 101.682 39.44 101.736 39.44C101.829 39.44 101.916 39.5133 101.996 39.66L102.576 40.74C102.629 40.8333 102.656 40.9133 102.656 40.98C102.656 41.0867 102.582 41.1933 102.436 41.3C101.902 41.6467 101.302 41.9 100.636 42.06C99.969 42.22 99.2023 42.3 98.3356 42.3ZM100.356 36.22C100.356 35.5533 100.169 35.0333 99.7956 34.66C99.4223 34.2867 98.8556 34.1 98.0956 34.1C97.3356 34.1 96.7556 34.2933 96.3556 34.68C95.9556 35.0533 95.7556 35.5667 95.7556 36.22H100.356ZM109.65 42.3C108.436 42.3 107.516 41.9667 106.89 41.3C106.263 40.6333 105.95 39.7133 105.95 38.54V34.72H104.97C104.65 34.72 104.436 34.66 104.33 34.54C104.223 34.42 104.17 34.2067 104.17 33.9V33.24C104.17 32.9333 104.223 32.72 104.33 32.6C104.436 32.4667 104.65 32.4 104.97 32.4H105.95V31.6C105.95 31.3067 106.01 31.02 106.13 30.74C106.263 30.4467 106.45 30.0867 106.69 29.66C106.796 29.4733 106.896 29.3533 106.99 29.3C107.083 29.2333 107.25 29.2 107.49 29.2H108.41C108.716 29.2 108.93 29.2667 109.05 29.4C109.183 29.5333 109.25 29.7467 109.25 30.04V32.4H111.23C111.55 32.4 111.763 32.4667 111.87 32.6C111.976 32.72 112.03 32.9333 112.03 33.24V33.9C112.03 34.2067 111.976 34.42 111.87 34.54C111.763 34.66 111.55 34.72 111.23 34.72H109.25V38.46C109.25 38.98 109.343 39.3533 109.53 39.58C109.716 39.8067 110.03 39.92 110.47 39.92C110.736 39.92 110.956 39.8867 111.13 39.82C111.316 39.7533 111.523 39.6467 111.75 39.5C111.856 39.4333 111.936 39.4 111.99 39.4C112.11 39.4 112.21 39.4733 112.29 39.62L113.03 40.88C113.096 40.9867 113.13 41.0733 113.13 41.14C113.13 41.2333 113.05 41.3333 112.89 41.44C112.05 42.0133 110.97 42.3 109.65 42.3ZM113.915 32.72C113.622 32.72 113.475 32.6067 113.475 32.38C113.475 32.3267 113.489 32.2467 113.515 32.14L114.555 28.72C114.635 28.4667 114.729 28.3 114.835 28.22C114.955 28.14 115.149 28.1 115.415 28.1H116.735C117.149 28.1 117.355 28.22 117.355 28.46C117.355 28.58 117.315 28.7333 117.235 28.92L115.795 32.32C115.742 32.4533 115.662 32.5533 115.555 32.62C115.449 32.6867 115.302 32.72 115.115 32.72H113.915ZM123.393 42.3C122.539 42.3 121.726 42.2133 120.953 42.04C120.179 41.8667 119.499 41.6133 118.913 41.28C118.699 41.16 118.593 41.04 118.593 40.92C118.593 40.8533 118.626 40.7667 118.693 40.66L119.393 39.42C119.473 39.2867 119.553 39.22 119.633 39.22C119.726 39.22 119.826 39.2533 119.933 39.32C120.319 39.5467 120.799 39.74 121.373 39.9C121.959 40.06 122.493 40.14 122.973 40.14C123.559 40.14 123.979 40.08 124.233 39.96C124.499 39.8267 124.633 39.6067 124.633 39.3C124.633 39.1 124.546 38.9333 124.373 38.8C124.213 38.6533 123.986 38.5333 123.693 38.44C123.399 38.3333 122.893 38.1733 122.173 37.96C121.066 37.6267 120.259 37.2467 119.753 36.82C119.246 36.3933 118.993 35.7867 118.993 35C118.993 34.0533 119.386 33.3333 120.173 32.84C120.973 32.3467 122.039 32.1 123.373 32.1C124.946 32.1 126.286 32.42 127.393 33.06C127.606 33.18 127.713 33.3067 127.713 33.44C127.713 33.52 127.673 33.62 127.593 33.74L126.913 34.82C126.833 34.9533 126.753 35.02 126.673 35.02C126.606 35.02 126.513 34.98 126.393 34.9C126.059 34.7133 125.666 34.56 125.213 34.44C124.759 34.32 124.306 34.26 123.853 34.26C123.293 34.26 122.873 34.3267 122.593 34.46C122.313 34.58 122.173 34.8 122.173 35.12C122.173 35.3867 122.326 35.6 122.633 35.76C122.953 35.9067 123.479 36.08 124.213 36.28L125.313 36.6C125.993 36.8267 126.519 37.06 126.893 37.3C127.266 37.54 127.533 37.82 127.693 38.14C127.853 38.46 127.933 38.8667 127.933 39.36C127.933 40.2133 127.546 40.92 126.773 41.48C125.999 42.0267 124.873 42.3 123.393 42.3ZM141.486 42.3C140.272 42.3 139.352 41.9667 138.726 41.3C138.099 40.6333 137.786 39.7133 137.786 38.54V34.72H136.806C136.486 34.72 136.272 34.66 136.166 34.54C136.059 34.42 136.006 34.2067 136.006 33.9V33.24C136.006 32.9333 136.059 32.72 136.166 32.6C136.272 32.4667 136.486 32.4 136.806 32.4H137.786V31.6C137.786 31.3067 137.846 31.02 137.966 30.74C138.099 30.4467 138.286 30.0867 138.526 29.66C138.632 29.4733 138.732 29.3533 138.826 29.3C138.919 29.2333 139.086 29.2 139.326 29.2H140.246C140.552 29.2 140.766 29.2667 140.886 29.4C141.019 29.5333 141.086 29.7467 141.086 30.04V32.4H143.066C143.386 32.4 143.599 32.4667 143.706 32.6C143.812 32.72 143.866 32.9333 143.866 33.24V33.9C143.866 34.2067 143.812 34.42 143.706 34.54C143.599 34.66 143.386 34.72 143.066 34.72H141.086V38.46C141.086 38.98 141.179 39.3533 141.366 39.58C141.552 39.8067 141.866 39.92 142.306 39.92C142.572 39.92 142.792 39.8867 142.966 39.82C143.152 39.7533 143.359 39.6467 143.586 39.5C143.692 39.4333 143.772 39.4 143.826 39.4C143.946 39.4 144.046 39.4733 144.126 39.62L144.866 40.88C144.932 40.9867 144.966 41.0733 144.966 41.14C144.966 41.2333 144.886 41.3333 144.726 41.44C143.886 42.0133 142.806 42.3 141.486 42.3ZM149.336 42.3C148.056 42.3 147.029 41.9 146.256 41.1C145.496 40.3 145.116 39.1733 145.116 37.72C145.116 36.6 145.376 35.62 145.896 34.78C146.416 33.9267 147.143 33.2667 148.076 32.8C149.009 32.3333 150.089 32.1 151.316 32.1C152.263 32.1 153.096 32.2067 153.816 32.42C154.549 32.6333 155.216 32.94 155.816 33.34V41.42C155.816 41.6467 155.769 41.8 155.676 41.88C155.596 41.96 155.429 42 155.176 42H153.596C153.449 42 153.336 41.9733 153.256 41.92C153.189 41.8667 153.136 41.78 153.096 41.66L152.876 40.96C152.476 41.4267 151.989 41.7667 151.416 41.98C150.843 42.1933 150.149 42.3 149.336 42.3ZM150.556 40.02C151.143 40.02 151.649 39.8533 152.076 39.52C152.516 39.1867 152.736 38.7333 152.736 38.16V34.66C152.336 34.46 151.856 34.36 151.296 34.36C150.416 34.36 149.709 34.6533 149.176 35.24C148.656 35.8133 148.396 36.62 148.396 37.66C148.396 38.46 148.576 39.0533 148.936 39.44C149.296 39.8267 149.836 40.02 150.556 40.02ZM158.76 42C158.44 42 158.207 41.9333 158.06 41.8C157.927 41.6533 157.86 41.4333 157.86 41.14V29.28C157.86 28.9867 157.927 28.7667 158.06 28.62C158.207 28.4733 158.44 28.4 158.76 28.4H160.26C160.593 28.4 160.827 28.4733 160.96 28.62C161.093 28.7533 161.16 28.9733 161.16 29.28V41.14C161.16 41.4333 161.093 41.6533 160.96 41.8C160.827 41.9333 160.593 42 160.26 42H158.76ZM173.172 41.34C173.252 41.4333 173.292 41.54 173.292 41.66C173.292 41.7533 173.259 41.8333 173.192 41.9C173.139 41.9667 173.052 42 172.932 42H170.432C170.272 42 170.145 41.9867 170.052 41.96C169.972 41.92 169.892 41.8533 169.812 41.76L166.632 37.84C166.592 37.8 166.545 37.74 166.492 37.66V41.14C166.492 41.4333 166.425 41.6533 166.292 41.8C166.159 41.9333 165.925 42 165.592 42H164.092C163.772 42 163.539 41.9333 163.392 41.8C163.259 41.6533 163.192 41.4333 163.192 41.14V29.28C163.192 28.9867 163.259 28.7667 163.392 28.62C163.539 28.4733 163.772 28.4 164.092 28.4H165.592C165.925 28.4 166.159 28.4733 166.292 28.62C166.425 28.7533 166.492 28.9733 166.492 29.28V36.4L166.632 36.24L169.712 32.66C169.792 32.5533 169.872 32.4867 169.952 32.46C170.045 32.42 170.179 32.4 170.352 32.4H172.832C172.939 32.4 173.025 32.4333 173.092 32.5C173.159 32.5667 173.192 32.6467 173.192 32.74C173.192 32.86 173.145 32.9667 173.052 33.06L169.352 37.04L173.172 41.34Z" fill="#9B9595"/>
<path d="M46.6281 24.3651C45.246 22.976 43.5998 21.8746 41.7854 21.1252C39.971 20.3757 38.0248 19.9933 36.0603 20.0001C27.8291 20.0001 21.1206 26.6751 21.1206 34.865C21.1206 37.49 21.8141 40.04 23.1106 42.29L21 50L28.9146 47.93C31.1005 49.115 33.5578 49.745 36.0603 49.745C44.2915 49.745 51 43.07 51 34.88C51 30.9051 49.4472 27.1701 46.6281 24.3651ZM36.0603 47.225C33.8291 47.225 31.6432 46.625 29.7286 45.5L29.2764 45.23L24.5729 46.46L25.8241 41.9L25.5226 41.435C24.283 39.4655 23.6248 37.1889 23.6231 34.865C23.6231 28.0551 29.201 22.5051 36.0452 22.5051C39.3618 22.5051 42.4824 23.7951 44.8191 26.1351C45.9761 27.281 46.893 28.6441 47.5167 30.1452C48.1403 31.6463 48.4583 33.2557 48.4523 34.88C48.4824 41.69 42.9045 47.225 36.0603 47.225ZM42.8744 37.985C42.4975 37.805 40.6583 36.905 40.3266 36.77C39.9799 36.65 39.7387 36.59 39.4824 36.95C39.2261 37.325 38.5176 38.165 38.3065 38.405C38.0955 38.66 37.8693 38.69 37.4925 38.495C37.1156 38.315 35.9095 37.91 34.4925 36.65C33.3769 35.66 32.6382 34.445 32.4121 34.07C32.201 33.695 32.3819 33.5 32.5779 33.305C32.7437 33.14 32.9548 32.8701 33.1357 32.6601C33.3166 32.4501 33.392 32.2851 33.5126 32.0451C33.6332 31.7901 33.5729 31.5801 33.4824 31.4001C33.392 31.2201 32.6382 29.3901 32.3367 28.6401C32.0352 27.9201 31.7186 28.0101 31.4925 27.9951H30.7688C30.5126 27.9951 30.1206 28.0851 29.7739 28.4601C29.4422 28.8351 28.4774 29.7351 28.4774 31.5651C28.4774 33.3951 29.8191 35.165 30 35.405C30.1809 35.66 32.6382 39.41 36.3769 41.015C37.2663 41.405 37.9598 41.63 38.5025 41.795C39.392 42.08 40.206 42.035 40.8543 41.945C41.5779 41.84 43.0703 41.045 43.3719 40.175C43.6884 39.305 43.6884 38.57 43.5829 38.405C43.4774 38.24 43.2513 38.165 42.8744 37.985Z" fill="#FFD700"/>
</svg>
