<svg width="30" height="25" viewBox="0 0 30 25" fill="none" xmlns="http://www.w3.org/2000/svg">
<path d="M30 2.94118C28.8958 3.45588 27.7055 3.79412 26.4723 3.95588C27.7342 3.17647 28.7094 1.94118 29.1683 0.455882C27.978 1.19118 26.6587 1.70588 25.2677 2C24.1348 0.735294 22.543 0 20.7361 0C17.3662 0 14.6128 2.82353 14.6128 6.30882C14.6128 6.80882 14.6702 7.29412 14.7706 7.75C9.66539 7.48529 5.1195 4.97059 2.09369 1.16176C1.5631 2.08824 1.26195 3.17647 1.26195 4.32353C1.26195 6.51471 2.33748 8.45588 4.00096 9.55882C2.98279 9.55882 2.03633 9.26471 1.20459 8.82353V8.86765C1.20459 11.9265 3.32696 14.4853 6.13767 15.0588C5.23527 15.3121 4.2879 15.3473 3.36998 15.1618C3.75947 16.4154 4.52228 17.5124 5.55117 18.2984C6.58006 19.0845 7.8233 19.5201 9.10612 19.5441C6.93159 21.3095 4.23613 22.2637 1.46272 22.25C0.975143 22.25 0.487572 22.2206 0 22.1618C2.72467 23.9559 5.96558 25 9.43595 25C20.7361 25 26.9455 15.3824 26.9455 7.04412C26.9455 6.76471 26.9455 6.5 26.9312 6.22059C28.1358 5.33823 29.1683 4.22059 30 2.94118Z" fill="#FFD700"/>
</svg>
