<svg width="30" height="30" viewBox="0 0 30 30" fill="none" xmlns="http://www.w3.org/2000/svg">
<path d="M25.6281 4.36508C24.246 2.97597 22.5998 1.87459 20.7854 1.12516C18.971 0.37574 17.0248 -0.00672015 15.0603 8.93542e-05C6.82914 8.93542e-05 0.120603 6.67507 0.120603 14.865C0.120603 17.49 0.81407 20.04 2.11055 22.29L0 30L7.91457 27.93C10.1005 29.115 12.5578 29.745 15.0603 29.745C23.2915 29.745 30 23.07 30 14.88C30 10.9051 28.4472 7.17007 25.6281 4.36508ZM15.0603 27.225C12.8291 27.225 10.6432 26.625 8.72864 25.5L8.27638 25.23L3.57286 26.46L4.82412 21.9L4.52261 21.435C3.28303 19.4655 2.62483 17.1889 2.62312 14.865C2.62312 8.05507 8.201 2.50508 15.0452 2.50508C18.3618 2.50508 21.4824 3.79508 23.8191 6.13507C24.9761 7.28101 25.893 8.64406 26.5167 10.1452C27.1403 11.6463 27.4583 13.2557 27.4523 14.88C27.4824 21.69 21.9045 27.225 15.0603 27.225ZM21.8744 17.985C21.4975 17.805 19.6583 16.905 19.3266 16.77C18.9799 16.65 18.7387 16.59 18.4824 16.95C18.2261 17.325 17.5176 18.165 17.3065 18.405C17.0955 18.66 16.8693 18.69 16.4925 18.495C16.1156 18.315 14.9095 17.91 13.4925 16.65C12.3769 15.66 11.6382 14.445 11.4121 14.07C11.201 13.695 11.3819 13.5 11.5779 13.305C11.7437 13.14 11.9548 12.8701 12.1357 12.6601C12.3166 12.4501 12.392 12.2851 12.5126 12.0451C12.6332 11.7901 12.5729 11.5801 12.4824 11.4001C12.392 11.2201 11.6382 9.39006 11.3367 8.64006C11.0352 7.92007 10.7186 8.01007 10.4925 7.99507H9.76884C9.51256 7.99507 9.1206 8.08507 8.77387 8.46006C8.44221 8.83506 7.47739 9.73506 7.47739 11.5651C7.47739 13.3951 8.8191 15.165 9 15.405C9.1809 15.66 11.6382 19.41 15.3769 21.015C16.2663 21.405 16.9598 21.63 17.5025 21.795C18.392 22.08 19.206 22.035 19.8543 21.945C20.5779 21.84 22.0703 21.045 22.3719 20.175C22.6884 19.305 22.6884 18.57 22.5829 18.405C22.4774 18.24 22.2513 18.165 21.8744 17.985Z" fill="#FFD700"/>
</svg>
